ffmpeg version 7.0 Copyright (c) 2000-2024 the FFmpeg developers
  built with Apple clang version 15.0.0 (clang-1500.3.9.4)
  configuration: --prefix=/opt/homebrew/Cellar/ffmpeg/7.0 --enable-shared --enable-pthreads --enable-version3 --cc=clang --host-cflags= --host-ldflags='-Wl,-ld_classic' --enable-ffplay --enable-gnutls --enable-gpl --enable-libaom --enable-libaribb24 --enable-libbluray --enable-libdav1d --enable-libharfbuzz --enable-libjxl --enable-libmp3lame --enable-libopus --enable-librav1e --enable-librist --enable-librubberband --enable-libsnappy --enable-libsrt --enable-libssh --enable-libsvtav1 --enable-libtesseract --enable-libtheora --enable-libvidstab --enable-libvmaf --enable-libvorbis --enable-libvpx --enable-libwebp --enable-libx264 --enable-libx265 --enable-libxml2 --enable-libxvid --enable-lzma --enable-libfontconfig --enable-libfreetype --enable-frei0r --enable-libass --enable-libopencore-amrnb --enable-libopencore-amrwb --enable-libopenjpeg --enable-libopenvino --enable-libspeex --enable-libsoxr --enable-libzmq --enable-libzimg --disable-libjack --disable-indev=jack --enable-videotoolbox --enable-audiotoolbox --enable-neon
  libavutil      59.  8.100 / 59.  8.100
  libavcodec     61.  3.100 / 61.  3.100
  libavformat    61.  1.100 / 61.  1.100
  libavdevice    61.  1.100 / 61.  1.100
  libavfilter    10.  1.100 / 10.  1.100
  libswscale      8.  1.100 /  8.  1.100
  libswresample   5.  1.100 /  5.  1.100
  libpostproc    58.  1.100 / 58.  1.100
Input #0, jpeg_pipe, from 'fd:':
  Duration: N/A, bitrate: N/A
  Stream #0:0: Video: mjpeg (Baseline), yuvj420p(pc, bt470bg/unknown/unknown), 640x360 [SAR 1:1 DAR 16:9], 25 fps, 25 tbr, 25 tbn
[out#0/mp4 @ 0x143007d60] Codec AVOption preset (Encoding preset) has not been used for any stream. The most likely reason is either wrong type (e.g. a video option with no video streams) or that it is a private option of some encoder which was not actually used for any stream.
Stream mapping:
  Stream #0:0 -> #0:0 (mjpeg (native) -> h264 (h264_videotoolbox))
[swscaler @ 0x128070000] deprecated pixel format used, make sure you did set range correctly
[swscaler @ 0x178008000] deprecated pixel format used, make sure you did set range correctly
[swscaler @ 0x158030000] deprecated pixel format used, make sure you did set range correctly
[swscaler @ 0x128070000] deprecated pixel format used, make sure you did set range correctly
Output #0, mp4, to '/Users/arjun.bhatt/Downloads/sandbox/finals/output_10s_640x360_30fps.mp4':
  Metadata:
    encoder         : Lavf61.1.100
  Stream #0:0: Video: h264 (avc1 / 0x31637661), yuv420p(progressive), 640x360 [SAR 1:1 DAR 16:9], q=2-31, 1200 kb/s, 30 fps, 15360 tbn
      Metadata:
        encoder         : Lavc61.3.100 h264_videotoolbox
[h264_videotoolbox @ 0x1430090b0] Color range not set for yuv420p. Using MPEG range.
frame=  106 fps=0.0 q=-0.0 size=     512KiB time=00:00:03.50 bitrate=1198.5kbits/s speed=   7x    frame=  190 fps=190 q=-0.0 size=    1024KiB time=00:00:06.30 bitrate=1331.6kbits/s speed=6.29x    frame=  266 fps=177 q=-0.0 size=    1536KiB time=00:00:08.83 bitrate=1424.5kbits/s speed=5.87x    [out#0/mp4 @ 0x143007d60] video:1800KiB audio:0KiB subtitle:0KiB other streams:0KiB global headers:0KiB muxing overhead: 0.116886%
frame=  300 fps=181 q=-0.0 Lsize=    1802KiB time=00:00:09.96 bitrate=1480.9kbits/s speed=6.02x    
bench: utime=0.801s stime=0.094s rtime=1.656s
bench: maxrss=68780032KiB
